{
  "asset": {
    "generator": "Khronos glTF Blender I/O v1.8.19",
    "version": "2.0"
  },
  "scene": 0,
  "scenes": [
    {
      "name": "Scene",
      "nodes": [
        0
      ]
    }
  ],
  "nodes": [
    {
      "mesh": 0,
      "name": "Landscape.006",
      "scale": [
        0.6666666865348816,
        0.8148276805877686,
        0.6666666865348816
      ],
      "translation": [
        50,
        0.8567905426025391,
        -50
      ]
    }
  ],
  "materials": [
    {
      "doubleSided": true,
      "name": "Material.002",
      "pbrMetallicRoughness": {
        "baseColorTexture": {
          "index": 0
        },
        "metallicFactor": 0,
        "roughnessFactor": 0.5
      }
    }
  ],
  "meshes": [
    {
      "name": "Landscape.006",
      "primitives": [
        {
          "attributes": {
            "POSITION": 0,
            "NORMAL": 1,
            "TEXCOORD_0": 2
          },
          "indices": 3,
          "material": 0
        }
      ]
    }
  ],
  "textures": [
    {
      "sampler": 0,
      "source": 0
    }
  ],
  "images": [
    {
      "name": "Untitled",
      "uri": "terrain_2_img0.png"
    }
  ],
  "accessors": [
    {
      "bufferView": 0,
      "componentType": 5126,
      "count": 22500,
      "max": [
        75,
        17.890840530395508,
        75
      ],
      "min": [
        -75,
        -17.45405387878418,
        -75
      ],
      "type": "VEC3"
    },
    {
      "bufferView": 1,
      "componentType": 5126,
      "count": 22500,
      "type": "VEC3"
    },
    {
      "bufferView": 2,
      "componentType": 5126,
      "count": 22500,
      "type": "VEC2"
    },
    {
      "bufferView": 3,
      "componentType": 5123,
      "count": 133206,
      "type": "SCALAR"
    }
  ],
  "bufferViews": [
    {
      "buffer": 0,
      "byteLength": 270000,
      "byteOffset": 0
    },
    {
      "buffer": 0,
      "byteLength": 270000,
      "byteOffset": 270000
    },
    {
      "buffer": 0,
      "byteLength": 180000,
      "byteOffset": 540000
    },
    {
      "buffer": 0,
      "byteLength": 266412,
      "byteOffset": 720000
    }
  ],
  "samplers": [
    {
      "magFilter": 9729,
      "minFilter": 9987
    }
  ],
  "buffers": [
    {
      "uri": "terrain_2_data.bin",
      "byteLength": 986412
    }
  ]
}